Coordinates
version=1
nRows=15
nColumns=46
inDegrees=yes

Units are S.I. units (second, meters, Newtons, ...)
Angles are in degrees.

endheader
time	pelvis_tilt	pelvis_list	pelvis_rotation	pelvis_tx	pelvis_ty	pelvis_tz	bb_angle	bb_tx	bb_ty	bb_tz	hip_flexion_r	hip_adduction_r	hip_rotation_r	knee_angle_r	knee_angle_r_beta	ankle_angle_r	subtalar_angle_r	mtp_angle_r	crank_angle_r	hip_flexion_l	hip_adduction_l	hip_rotation_l	knee_angle_l	knee_angle_l_beta	ankle_angle_l	subtalar_angle_l	mtp_angle_l	crank_angle_l	lumbar_extension	lumbar_bending	lumbar_rotation	arm_flex_r	arm_add_r	arm_rot_r	elbow_flex_r	pro_sup_r	wrist_flex_r	wrist_dev_r	arm_flex_l	arm_add_l	arm_rot_l	elbow_flex_l	pro_sup_l	wrist_flex_l	wrist_dev_l
      7.50000000	    -32.47039551	      0.71902235	      8.15929555	      0.35491751	      1.09248434	     -0.30201680	      0.00000000	      0.50000000	      0.00000000	      0.25000000	     56.33417278	     -9.04196050	      2.95583212	     65.51738929	      1.14349416	    -24.58798298	     -3.53463706	      0.00000000	      0.00000000	     82.57092393	     -3.83784150	     -3.11158117	     76.81042124	      1.34059475	      3.62426761	     -4.29157260	      0.00000000	      0.00000000	    -89.92580568	      6.15117451	    -30.13864007	     89.27006693	    -14.23409276	     31.87590796	    119.83735986	     37.11122134	      0.00000000	      0.00000000	     87.84651022	   -118.18039399	    -12.03814160	    139.49882650	     64.93001588	      0.00000000	      0.00000000
      7.50500000	    -32.22006190	      0.01702505	      7.74729729	      0.35423642	      1.09216203	     -0.30250429	      0.00000000	      0.50000000	      0.00000000	      0.25000000	     57.30268601	     -8.01235893	      3.21213966	     67.87505428	      1.18464318	    -24.53032622	     -3.71717783	      0.00000000	      0.00000000	     81.33635783	     -4.46123036	     -3.02236023	     74.53130251	      1.30081662	      2.80101864	     -4.13344183	      0.00000000	      0.00000000	    -89.92634479	      6.03387203	    -29.59604156	     89.31367509	    -14.00371219	     31.94216612	    119.56827500	     37.05698605	      0.00000000	      0.00000000	     88.02242591	   -118.15294537	    -12.02360370	    139.54287177	     65.01751246	      0.00000000	      0.00000000
      7.51000000	    -31.86945334	     -0.39736166	      7.26129014	      0.35361810	      1.09193274	     -0.30290787	      0.00000000	      0.50000000	      0.00000000	      0.25000000	     58.22544764	     -7.16020268	      3.63131370	     70.25924536	      1.22625516	    -24.44994711	     -3.75162031	      0.00000000	      0.00000000	     79.89189841	     -5.05020229	     -3.13917520	     72.23258173	      1.26069638	      1.73436146	     -4.10677429	      0.00000000	      0.00000000	    -89.92621592	      5.87403210	    -29.41697833	     89.36013611	    -13.08032393	     31.98921758	    118.60156958	     36.82212925	      0.00000000	      0.00000000	     88.21083077	   -118.12754231	    -11.77747884	    139.54600820	     65.44250681	      0.00000000	      0.00000000
      7.51500000	    -31.61566721	     -1.02514690	      6.78450214	      0.35293831	      1.09119179	     -0.30337353	      0.00000000	      0.50000000	      0.00000000	      0.25000000	     59.22341537	     -6.20306061	      3.78872394	     72.63717712	      1.26775790	    -24.14370319	     -3.92173051	      0.00000000	      0.00000000	     78.70011667	     -5.69383543	     -2.91693819	     70.11446869	      1.22372833	      0.66214402	     -3.45352206	      0.00000000	      0.00000000	    -89.92632606	      5.73161858	    -28.87340552	     89.39219961	    -12.80496670	     32.01477699	    118.36191162	     36.76221978	      0.00000000	      0.00000000	     88.34254738	   -118.13198787	    -11.76851745	    139.58968682	     65.54872954	      0.00000000	      0.00000000
      7.52000000	    -31.32826476	     -1.26183058	      6.17342795	      0.35229727	      1.09031534	     -0.30380755	      0.00000000	      0.50000000	      0.00000000	      0.25000000	     60.25195182	     -5.43195659	      4.27490247	     75.13407574	      1.31133700	    -23.44612701	     -3.90913085	      0.00000000	      0.00000000	     77.31433016	     -6.34199156	     -3.22860897	     67.98907292	      1.18663318	     -0.46093241	     -3.31029729	      0.00000000	      0.00000000	    -89.92627126	      5.43411382	    -28.73040891	     89.41792224	    -12.16935705	     32.01627602	    117.72706967	     36.58636141	      0.00000000	      0.00000000	     88.45973256	   -118.11629823	    -11.63672428	    139.66020516	     65.88259806	      0.00000000	      0.00000000
      7.52500000	    -30.91002003	     -1.75448142	      5.64779341	      0.35155125	      1.08923602	     -0.30451926	      0.00000000	      0.50000000	      0.00000000	      0.25000000	     61.14835243	     -4.66893192	      4.33078558	     77.63465887	      1.35498041	    -22.67299961	     -3.87002744	      0.00000000	      0.00000000	     75.93321688	     -6.85911355	     -2.97992639	     65.98410800	      1.15163994	     -1.83605514	     -3.15232234	      0.00000000	      0.00000000	    -89.92506424	      5.37112469	    -28.42560318	     89.45020358	    -10.80308016	     31.71478631	    116.99730324	     35.41569789	      0.00000000	      0.00000000	     88.61787975	   -118.19259360	    -12.59761082	    139.07242348	     71.66150241	      0.00000000	      0.00000000
      7.53000000	    -30.59085037	     -2.22783980	      5.00466330	      0.35082806	      1.08776583	     -0.30500507	      0.00000000	      0.50000000	      0.00000000	      0.25000000	     62.17922953	     -3.85207999	      4.36159703	     80.17450632	      1.39930911	    -21.68179008	     -4.07658725	      0.00000000	      0.00000000	     74.65059881	     -7.49450040	     -2.80180260	     64.06175271	      1.11808851	     -3.16153299	     -2.86494076	      0.00000000	      0.00000000	    -89.92429240	      5.06387840	    -27.97676923	     89.47985412	    -10.72690930	     31.87927362	    116.85556719	     35.38671769	      0.00000000	      0.00000000	     88.67431833	   -118.22394103	    -12.60779638	    139.15859354	     71.72373022	      0.00000000	      0.00000000
      7.53500000	    -30.25308242	     -2.40459840	      4.37037331	      0.35020177	      1.08615832	     -0.30580116	      0.00000000	      0.50000000	      0.00000000	      0.25000000	     63.24641440	     -3.30725613	      4.67011460	     82.79944239	      1.44512289	    -20.36981520	     -3.65192251	      0.00000000	      0.00000000	     73.19475814	     -7.85830902	     -2.84155854	     62.09562587	      1.08377312	     -4.61004336	     -3.39312106	      0.00000000	      0.00000000	    -89.92387372	      4.82302152	    -27.73148713	     89.50031992	    -10.47547422	     32.16744099	    116.54692567	     35.30137069	      0.00000000	      0.00000000	     88.75802040	   -118.25686327	    -12.47363357	    139.35523636	     71.96167570	      0.00000000	      0.00000000
      7.54000000	    -29.89379724	     -2.70212593	      3.66300480	      0.34960839	      1.08422950	     -0.30630975	      0.00000000	      0.50000000	      0.00000000	      0.25000000	     64.30821941	     -2.62884164	      4.78531536	     85.43849923	      1.49118312	    -18.95565531	     -3.51748741	      0.00000000	      0.00000000	     71.78006989	     -8.35732152	     -2.73238037	     60.29049901	      1.05226772	     -5.98447624	     -3.80385222	      0.00000000	      0.00000000	    -89.92294769	      4.50628647	    -27.34629948	     89.51688515	    -10.17239388	     32.35705971	    116.32882280	     35.21769140	      0.00000000	      0.00000000	     88.84480861	   -118.32179914	    -12.31380715	    139.51026685	     72.23831329	      0.00000000	      0.00000000
      7.54500000	    -29.51484379	     -3.00300228	      2.97300435	      0.34930080	      1.08231023	     -0.30696363	      0.00000000	      0.50000000	      0.00000000	      0.25000000	     65.33141301	     -2.01782300	      4.84265114	     88.04568687	      1.53668713	    -17.40632286	     -3.34173552	      0.00000000	      0.00000000	     70.27126274	     -8.78299018	     -2.54226701	     58.51368807	      1.02125651	     -7.24484900	     -4.25736961	      0.00000000	      0.00000000	    -89.92182284	      4.22138306	    -26.97980998	     89.54324166	     -9.31121063	     32.41709801	    115.88209402	     34.98136695	      0.00000000	      0.00000000	     88.94048767	   -118.39980371	    -12.00085359	    139.68310836	     72.92423520	      0.00000000	      0.00000000
      7.55000000	    -29.14938897	     -3.27746992	      2.13392246	      0.34886915	      1.08011646	     -0.30752643	      0.00000000	      0.50000000	      0.00000000	      0.25000000	     66.43772656	     -1.28320887	      4.99521891	     90.63846601	      1.58193966	    -15.88812856	     -3.15050991	      0.00000000	      0.00000000	     68.74801603	     -9.29728447	     -2.39661378	     56.81599089	      0.99162611	     -8.45013620	     -4.87024173	      0.00000000	      0.00000000	    -89.92091385	      3.84783517	    -26.48319607	     89.55619423	     -8.96175712	     32.53307674	    115.81320757	     34.92258968	      0.00000000	      0.00000000	     89.01276118	   -118.44567608	    -11.90236360	    139.90816036	     73.20127283	      0.00000000	      0.00000000
      7.55500000	    -28.78132758	     -3.50829115	      1.34053571	      0.34848835	      1.07790513	     -0.30829536	      0.00000000	      0.50000000	      0.00000000	      0.25000000	     67.55829164	     -0.66738886	      5.14662252	     93.18971631	      1.62646738	    -14.25081646	     -2.74110872	      0.00000000	      0.00000000	     67.13548999	     -9.69532431	     -2.17214930	     55.09574617	      0.96160217	     -9.57782643	     -5.48198348	      0.00000000	      0.00000000	    -89.92061739	      3.57591281	    -25.99414955	     89.55236590	     -8.73394972	     32.65708262	    115.81419508	     34.86336150	      0.00000000	      0.00000000	     89.08688840	   -118.49840164	    -11.64379299	    140.16336579	     73.64989886	      0.00000000	      0.00000000
      7.56000000	    -28.40684121	     -3.72560495	      0.45960857	      0.34824462	      1.07565036	     -0.30863789	      0.00000000	      0.50000000	      0.00000000	      0.25000000	     68.69288806	      0.07944039	      5.34058307	     95.69657757	      1.67022036	    -12.63726384	     -2.46750047	      0.00000000	      0.00000000	     65.45871872	    -10.28052316	     -2.22183136	     53.41622373	      0.93228898	    -10.62987058	     -6.04457101	      0.00000000	      0.00000000	    -89.92006808	      3.18204815	    -25.49793143	     89.56273767	     -8.22831161	     32.82877339	    115.73058570	     34.79120145	      0.00000000	      0.00000000	     89.14534266	   -118.56473349	    -11.34027749	    140.40416181	     74.11118683	      0.00000000	      0.00000000
      7.56500000	    -28.03753067	     -4.16019927	     -0.38374031	      0.34802599	      1.07327456	     -0.30930146	      0.00000000	      0.50000000	      0.00000000	      0.25000000	     69.82503815	      0.86939949	      5.24328231	     98.08673687	      1.71193651	    -11.25408297	     -2.69088286	      0.00000000	      0.00000000	     63.87129436	    -10.85977007	     -1.83773748	     51.94379023	      0.90659017	    -11.29199396	     -6.25706109	      0.00000000	      0.00000000	    -89.91977035	      2.87768243	    -24.72437595	     89.57702411	     -7.97565603	     32.94211876	    115.66807820	     34.76725980	      0.00000000	      0.00000000	     89.18903897	   -118.64448727	    -11.27394536	    140.53174855	     74.24983589	      0.00000000	      0.00000000
      7.57000000	    -27.60508266	     -4.25904033	     -1.37145937	      0.34796305	      1.07118880	     -0.31006376	      0.00000000	      0.50000000	      0.00000000	      0.25000000	     70.94237211	      1.55026412	      5.58307315	    100.42760083	      1.75279229	     -9.49697112	     -1.74740174	      0.00000000	      0.00000000	     62.01390163	    -11.36950885	     -2.04456846	     50.36753456	      0.87907931	    -12.42412472	     -7.33382931	      0.00000000	      0.00000000	    -89.91996644	      2.47026083	    -24.38440548	     89.58698333	     -7.21756263	     33.23911780	    115.37908086	     34.64743000	      0.00000000	      0.00000000	     89.24148987	   -118.66529726	    -10.64051385	    141.00987781	     74.92469694	      0.00000000	      0.00000000
